<svg xmlns="http://www.w3.org/2000/svg" xmlns:xlink="http://www.w3.org/1999/xlink" width="26" height="26" viewBox="0 0 26 26"><defs><linearGradient id="b" x1="1073.403" x2="1097.116" y1="516.451" y2="544.308" gradientTransform="translate(-834.007 625.151) scale(.78112)" gradientUnits="userSpaceOnUse" xlink:href="#a"/><linearGradient id="a"><stop offset="0" stop-color="#16ff6a"/><stop offset="1" stop-color="#0090a5"/></linearGradient></defs><g transform="translate(-1.03 -1096.225) scale(1.06642)"><rect width="24.381" height="24.381" x=".965" y="1027.95" fill="url(#b)" rx="5.152" ry="5.152"/><path fill="#fff" style="line-height:normal;text-indent:0;text-align:start;text-decoration-line:none;text-decoration-style:solid;text-decoration-color:#000;text-transform:none;block-progression:tb;isolation:auto;mix-blend-mode:normal" d="m 19.225243,1044.8295 0,-6.5634 -12.1646999,-10e-5 0,6.5634 m 6.0951679,-11.1435 5.098842,3.6425 -8.8771865,0 -1.322329,0 z m 0,1.3918 c -0.258975,0 -0.468901,0.21 -0.468859,0.4689 1.3e-5,0.2589 0.209923,0.4688 0.468859,0.4688 0.258937,0 0.468847,-0.2099 0.468859,-0.4688 4.3e-5,-0.2589 -0.209883,-0.4689 -0.468859,-0.4689 z m -5.1574494,9.7517 0,-6.5634 0.9102459,0 0,6.5634 m 0.937718,0 0,-6.5634 1.9285495,0 0,6.5634 m 0.937718,0 0,-6.5634 0.912077,0 0,6.5634 m 0.937718,0 0,-6.5634 1.875436,0 0,6.5634 m 0.937718,0 0,-6.5634 0.910246,0 0,6.5634 m -11.6940035,0.9376 13.1280525,0 0,0.9377 -13.1280525,0 z" color="#000" font-family="sans-serif" font-weight="400" overflow="visible"/></g></svg>